<mxfile host="app.diagrams.net" modified="2020-12-05T16:56:15.399Z" agent="5.0 (Windows)" etag="e7epwC5R1e2cuDitFoEO" version="13.10.9" type="github">
  <diagram id="6a731a19-8d31-9384-78a2-239565b7b9f0" name="Page-1">
    <mxGraphModel dx="1662" dy="763" grid="1" gridSize="10" guides="1" tooltips="1" connect="1" arrows="1" fold="1" page="1" pageScale="1" pageWidth="620" pageHeight="310" background="#ffffff" math="0" shadow="0">
      <root>
        <mxCell id="0" />
        <mxCell id="1" parent="0" />
        <mxCell id="1350" value="Multimedia" style="ellipse;whiteSpace=wrap;html=1;shadow=0;fontFamily=Helvetica;fontSize=40;align=center;strokeWidth=3;strokeColor=none;fillColor=#F2E479;fontColor=#384023;gradientColor=#DBCF6E;fontStyle=0;perimeter=ellipsePerimeter;" parent="1" vertex="1">
          <mxGeometry x="191" y="109.75" width="290" height="121.25" as="geometry" />
        </mxCell>
        <mxCell id="iaC6b17GLmA-YWx4HKnk-1615" style="edgeStyle=none;rounded=0;sketch=1;fillWeight=0;hachureGap=4;hachureAngle=-41;jiggle=1;simplification=0;orthogonalLoop=1;jettySize=auto;html=1;startSize=5;endArrow=none;strokeColor=#384023;strokeWidth=3;fillColor=#b0e3e6;fontSize=35;fontColor=#384023;" parent="1" source="iaC6b17GLmA-YWx4HKnk-1555" target="1350" edge="1">
          <mxGeometry relative="1" as="geometry" />
        </mxCell>
        <mxCell id="iaC6b17GLmA-YWx4HKnk-1555" value="3dsmax" style="rounded=1;strokeWidth=3;shadow=0;html=1;fontSize=20;strokeColor=none;fontColor=#EEEEEE;arcSize=60;absoluteArcSize=0;perimeter=ellipsePerimeter;fillColor=#8C4942;gradientColor=#753D37;" parent="1" vertex="1">
          <mxGeometry x="265" y="63" width="120" height="40" as="geometry" />
        </mxCell>
        <mxCell id="iaC6b17GLmA-YWx4HKnk-1618" style="edgeStyle=none;rounded=0;sketch=1;fillWeight=0;hachureGap=4;hachureAngle=-41;jiggle=1;simplification=0;orthogonalLoop=1;jettySize=auto;html=1;startSize=5;endArrow=none;strokeColor=#384023;strokeWidth=3;fillColor=#b0e3e6;fontSize=35;fontColor=#384023;entryX=0.679;entryY=0.043;entryDx=0;entryDy=0;entryPerimeter=0;" parent="1" source="iaC6b17GLmA-YWx4HKnk-1568" target="1350" edge="1">
          <mxGeometry relative="1" as="geometry" />
        </mxCell>
        <mxCell id="iaC6b17GLmA-YWx4HKnk-1568" value="Audition" style="rounded=1;strokeWidth=3;shadow=0;html=1;fontSize=20;strokeColor=none;glass=0;perimeterSpacing=2;arcSize=60;fillOpacity=100;fontColor=#EEEEEE;absoluteArcSize=0;perimeter=ellipsePerimeter;fillColor=#8C4942;gradientColor=#753D37;" parent="1" vertex="1">
          <mxGeometry x="371" y="23" width="130" height="40" as="geometry" />
        </mxCell>
        <mxCell id="iaC6b17GLmA-YWx4HKnk-1613" style="edgeStyle=none;rounded=0;sketch=1;fillWeight=0;hachureGap=4;hachureAngle=-41;jiggle=1;simplification=0;orthogonalLoop=1;jettySize=auto;html=1;exitX=0.196;exitY=0.957;exitDx=0;exitDy=0;startSize=5;endArrow=none;strokeColor=#384023;strokeWidth=3;fillColor=#b0e3e6;fontSize=35;fontColor=#384023;exitPerimeter=0;" parent="1" source="iaC6b17GLmA-YWx4HKnk-1569" target="1350" edge="1">
          <mxGeometry relative="1" as="geometry" />
        </mxCell>
        <mxCell id="iaC6b17GLmA-YWx4HKnk-1569" value="Lightroom" style="rounded=1;strokeWidth=3;shadow=0;html=1;fontSize=35;strokeColor=none;fillColor=#8C342A;glass=0;perimeterSpacing=2;arcSize=60;fillOpacity=100;fontColor=#EEEEEE;absoluteArcSize=0;gradientColor=#7D2F26;perimeter=ellipsePerimeter;" parent="1" vertex="1">
          <mxGeometry x="431" y="71" width="180" height="60" as="geometry" />
        </mxCell>
        <mxCell id="iaC6b17GLmA-YWx4HKnk-1619" style="edgeStyle=none;rounded=0;sketch=1;fillWeight=0;hachureGap=4;hachureAngle=-41;jiggle=1;simplification=0;orthogonalLoop=1;jettySize=auto;html=1;entryX=0;entryY=1;entryDx=0;entryDy=0;startSize=5;endArrow=none;strokeColor=#384023;strokeWidth=3;fillColor=#b0e3e6;fontSize=35;fontColor=#384023;" parent="1" source="iaC6b17GLmA-YWx4HKnk-1579" target="1350" edge="1">
          <mxGeometry relative="1" as="geometry" />
        </mxCell>
        <mxCell id="iaC6b17GLmA-YWx4HKnk-1579" value="Photography" style="rounded=1;strokeWidth=3;shadow=0;html=1;fontSize=35;strokeColor=none;fillColor=#8C342A;glass=0;perimeterSpacing=2;arcSize=60;fillOpacity=100;fontColor=#EEEEEE;absoluteArcSize=0;gradientColor=#7D2F26;perimeter=ellipsePerimeter;" parent="1" vertex="1">
          <mxGeometry x="1" y="226" width="230" height="60" as="geometry" />
        </mxCell>
        <mxCell id="iaC6b17GLmA-YWx4HKnk-1614" style="edgeStyle=none;rounded=0;sketch=1;fillWeight=0;hachureGap=4;hachureAngle=-41;jiggle=1;simplification=0;orthogonalLoop=1;jettySize=auto;html=1;startSize=5;endArrow=none;strokeColor=#384023;strokeWidth=3;fillColor=#b0e3e6;fontSize=35;fontColor=#384023;" parent="1" source="iaC6b17GLmA-YWx4HKnk-1582" target="1350" edge="1">
          <mxGeometry relative="1" as="geometry" />
        </mxCell>
        <mxCell id="iaC6b17GLmA-YWx4HKnk-1582" value="Photoshop" style="rounded=1;strokeWidth=3;shadow=0;fontSize=35;strokeColor=none;fillColor=#8C342A;glass=0;perimeterSpacing=2;arcSize=60;fillOpacity=100;labelBackgroundColor=none;labelBorderColor=none;html=1;fontFamily=Helvetica;absoluteArcSize=0;imageAspect=1;portConstraintRotation=0;container=0;comic=0;fontColor=#EEEEEE;gradientColor=#7D2F26;perimeter=ellipsePerimeter;" parent="1" vertex="1">
          <mxGeometry x="36" y="71" width="190" height="60" as="geometry" />
        </mxCell>
        <mxCell id="65b6GWvzraYydtoePHiK-1359" style="edgeStyle=none;rounded=0;sketch=1;fillWeight=0;hachureGap=4;hachureAngle=-41;jiggle=1;simplification=0;orthogonalLoop=1;jettySize=auto;html=1;exitX=0;exitY=0.5;exitDx=0;exitDy=0;entryX=1;entryY=0.5;entryDx=0;entryDy=0;startSize=5;endArrow=none;strokeColor=#384023;strokeWidth=3;fillColor=#b0e3e6;fontSize=35;fontColor=#384023;" edge="1" parent="1" source="iaC6b17GLmA-YWx4HKnk-1586" target="1350">
          <mxGeometry relative="1" as="geometry" />
        </mxCell>
        <mxCell id="iaC6b17GLmA-YWx4HKnk-1586" value="Photo Print" style="rounded=1;strokeWidth=3;shadow=0;html=1;fontSize=14;strokeColor=none;glass=0;perimeterSpacing=2;arcSize=60;fillOpacity=100;fontColor=#EEEEEE;absoluteArcSize=0;perimeter=ellipsePerimeter;fillColor=#996C65;gradientColor=#825851;" parent="1" vertex="1">
          <mxGeometry x="511" y="141" width="80" height="30" as="geometry" />
        </mxCell>
        <mxCell id="65b6GWvzraYydtoePHiK-1361" style="edgeStyle=none;rounded=0;sketch=1;fillWeight=0;hachureGap=4;hachureAngle=-41;jiggle=1;simplification=0;orthogonalLoop=1;jettySize=auto;html=1;exitX=1;exitY=0.5;exitDx=0;exitDy=0;startSize=5;endArrow=none;strokeColor=#384023;strokeWidth=3;fillColor=#b0e3e6;fontSize=35;fontColor=#384023;" edge="1" parent="1" source="iaC6b17GLmA-YWx4HKnk-1589" target="1350">
          <mxGeometry relative="1" as="geometry" />
        </mxCell>
        <mxCell id="iaC6b17GLmA-YWx4HKnk-1589" value="Illustrator" style="rounded=1;strokeWidth=3;shadow=0;html=1;fontSize=14;strokeColor=none;glass=0;perimeterSpacing=2;arcSize=60;fillOpacity=100;fontColor=#EEEEEE;absoluteArcSize=0;perimeter=ellipsePerimeter;fillColor=#996C65;gradientColor=#825851;" parent="1" vertex="1">
          <mxGeometry x="76" y="141" width="80" height="30" as="geometry" />
        </mxCell>
        <mxCell id="65b6GWvzraYydtoePHiK-1355" style="edgeStyle=none;rounded=0;sketch=1;fillWeight=0;hachureGap=4;hachureAngle=-41;jiggle=1;simplification=0;orthogonalLoop=1;jettySize=auto;html=1;exitX=0.5;exitY=1;exitDx=0;exitDy=0;entryX=0.29;entryY=0.052;entryDx=0;entryDy=0;entryPerimeter=0;startSize=5;endArrow=none;strokeColor=#384023;strokeWidth=3;fillColor=#b0e3e6;fontSize=35;fontColor=#384023;" edge="1" parent="1" source="65b6GWvzraYydtoePHiK-1350" target="1350">
          <mxGeometry relative="1" as="geometry" />
        </mxCell>
        <mxCell id="65b6GWvzraYydtoePHiK-1350" value="Videography" style="rounded=1;strokeWidth=3;shadow=0;fontSize=35;strokeColor=none;fillColor=#8C342A;glass=0;perimeterSpacing=2;arcSize=60;fillOpacity=100;labelBackgroundColor=none;labelBorderColor=none;html=1;fontFamily=Helvetica;absoluteArcSize=0;imageAspect=1;portConstraintRotation=0;container=0;comic=0;fontColor=#EEEEEE;gradientColor=#7D2F26;perimeter=ellipsePerimeter;" vertex="1" parent="1">
          <mxGeometry x="111" y="1" width="220" height="60" as="geometry" />
        </mxCell>
        <mxCell id="65b6GWvzraYydtoePHiK-1360" style="edgeStyle=none;rounded=0;sketch=1;fillWeight=0;hachureGap=4;hachureAngle=-41;jiggle=1;simplification=0;orthogonalLoop=1;jettySize=auto;html=1;exitX=1;exitY=0.25;exitDx=0;exitDy=0;entryX=0.034;entryY=0.654;entryDx=0;entryDy=0;entryPerimeter=0;startSize=5;endArrow=none;strokeColor=#384023;strokeWidth=3;fillColor=#b0e3e6;fontSize=35;fontColor=#384023;" edge="1" parent="1" source="65b6GWvzraYydtoePHiK-1351" target="1350">
          <mxGeometry relative="1" as="geometry" />
        </mxCell>
        <mxCell id="65b6GWvzraYydtoePHiK-1351" value="Maya" style="rounded=1;strokeWidth=3;shadow=0;html=1;fontSize=14;strokeColor=none;glass=0;perimeterSpacing=2;arcSize=60;fillOpacity=100;fontColor=#EEEEEE;absoluteArcSize=0;perimeter=ellipsePerimeter;fillColor=#996C65;gradientColor=#825851;" vertex="1" parent="1">
          <mxGeometry x="111" y="181" width="80" height="30" as="geometry" />
        </mxCell>
        <mxCell id="65b6GWvzraYydtoePHiK-1358" style="edgeStyle=none;rounded=0;sketch=1;fillWeight=0;hachureGap=4;hachureAngle=-41;jiggle=1;simplification=0;orthogonalLoop=1;jettySize=auto;html=1;exitX=0.25;exitY=0;exitDx=0;exitDy=0;entryX=1;entryY=1;entryDx=0;entryDy=0;startSize=5;endArrow=none;strokeColor=#384023;strokeWidth=3;fillColor=#b0e3e6;fontSize=35;fontColor=#384023;" edge="1" parent="1" source="65b6GWvzraYydtoePHiK-1352" target="1350">
          <mxGeometry relative="1" as="geometry" />
        </mxCell>
        <mxCell id="65b6GWvzraYydtoePHiK-1352" value="Premiere" style="rounded=1;strokeWidth=3;shadow=0;html=1;fontSize=20;strokeColor=none;glass=0;perimeterSpacing=2;arcSize=60;fillOpacity=100;fontColor=#EEEEEE;absoluteArcSize=0;perimeter=ellipsePerimeter;fillColor=#8C4942;gradientColor=#753D37;" vertex="1" parent="1">
          <mxGeometry x="441" y="226" width="130" height="40" as="geometry" />
        </mxCell>
        <mxCell id="65b6GWvzraYydtoePHiK-1357" style="edgeStyle=none;rounded=0;sketch=1;fillWeight=0;hachureGap=4;hachureAngle=-41;jiggle=1;simplification=0;orthogonalLoop=1;jettySize=auto;html=1;exitX=0.5;exitY=0;exitDx=0;exitDy=0;entryX=0.5;entryY=1;entryDx=0;entryDy=0;startSize=5;endArrow=none;strokeColor=#384023;strokeWidth=3;fillColor=#b0e3e6;fontSize=35;fontColor=#384023;" edge="1" parent="1" source="65b6GWvzraYydtoePHiK-1353" target="1350">
          <mxGeometry relative="1" as="geometry" />
        </mxCell>
        <mxCell id="65b6GWvzraYydtoePHiK-1353" value="MSPaint" style="rounded=1;strokeWidth=3;shadow=0;html=1;fontSize=35;strokeColor=none;fillColor=#8C342A;glass=0;perimeterSpacing=2;arcSize=60;fillOpacity=100;fontColor=#EEEEEE;absoluteArcSize=0;gradientColor=#7D2F26;perimeter=ellipsePerimeter;" vertex="1" parent="1">
          <mxGeometry x="261" y="241" width="170" height="60" as="geometry" />
        </mxCell>
      </root>
    </mxGraphModel>
  </diagram>
</mxfile>
